<svg version="1.1" viewBox="0.0 0.0 144.0 144.0" fill="none" stroke="none" stroke-linecap="square" stroke-miterlimit="10" xmlns:xlink="http://www.w3.org/1999/xlink" xmlns="http://www.w3.org/2000/svg"><clipPath id="p.0"><path d="m0 0l144.0 0l0 144.0l-144.0 0l0 -144.0z" clip-rule="nonzero"/></clipPath><g clip-path="url(#p.0)"><path fill="#3a00ab" d="m0 0l144.0 0l0 144.0l-144.0 0z" fill-rule="evenodd"/><path fill="#000000" fill-opacity="0.0" d="m0 -7.274616l144.0 0l0 142.17322l-144.0 0z" fill-rule="evenodd"/><path fill="#ffffff" d="m51.96875 58.892002l0 38.187504l4.625 0q4.625 0 6.59375 1.78125q1.96875 1.78125 1.96875 4.65625q0 2.8125 -1.96875 4.59375q-1.96875 1.78125 -6.59375 1.78125l-16.8125 0q-4.625 0 -6.59375 -1.78125q-1.96875 -1.78125 -1.96875 -4.65625q0 -2.8125 1.9375 -4.59375q1.9375 -1.78125 6.0 -1.78125l0 -50.125004q-3.375 -0.3125 -5.09375 -2.0625q-1.71875 -1.75 -1.71875 -4.375q0 -2.875 1.96875 -4.65625q1.96875 -1.78125 6.59375 -1.78125l14.0625 0.0625l17.4375 38.562504l17.125 -38.625004l14.1875 0.0625q4.625 0 6.59375 1.75q1.96875 1.75 1.96875 4.625q0 2.625 -1.75 4.375q-1.75 1.75 -5.0625 2.0625l0 50.125004q4.0625 0 6.0 1.8125q1.9375 1.8125 1.9375 4.625q0 2.8125 -1.96875 4.59375q-1.96875 1.78125 -6.59375 1.78125l-16.875 0q-4.5625 0 -6.53125 -1.78125q-1.96875 -1.78125 -1.96875 -4.65625q0 -2.8125 1.96875 -4.59375q1.96875 -1.78125 6.53125 -1.78125l4.6875 0l0 -38.187504l-14.6875 33.000004l-11.125 0l-14.875 -33.000004z" fill-rule="nonzero"/></g></svg>